<svg width="16" height="16" viewBox="0 0 16 16" fill="none" xmlns="http://www.w3.org/2000/svg">
<path d="M7.79189 5.69526C6.41564 5.69526 5.29251 6.81839 5.29251 8.19464C5.29251 9.57089 6.41564 10.694 7.79189 10.694C9.16814 10.694 10.2913 9.57089 10.2913 8.19464C10.2913 6.81839 9.16814 5.69526 7.79189 5.69526ZM15.2881 8.19464C15.2881 7.15964 15.2975 6.13401 15.2394 5.10089C15.1813 3.90089 14.9075 2.83589 14.03 1.95839C13.1506 1.07901 12.0875 0.80714 10.8875 0.749015C9.85251 0.69089 8.82689 0.700265 7.79376 0.700265C6.75876 0.700265 5.73314 0.69089 4.70001 0.749015C3.50001 0.80714 2.43501 1.08089 1.55751 1.95839C0.678136 2.83776 0.406261 3.90089 0.348136 5.10089C0.290011 6.13589 0.299386 7.16151 0.299386 8.19464C0.299386 9.22777 0.290011 10.2553 0.348136 11.2884C0.406261 12.4884 0.680011 13.5534 1.55751 14.4309C2.43689 15.3103 3.50001 15.5821 4.70001 15.6403C5.73501 15.6984 6.76064 15.689 7.79376 15.689C8.82876 15.689 9.85439 15.6984 10.8875 15.6403C12.0875 15.5821 13.1525 15.3084 14.03 14.4309C14.9094 13.5515 15.1813 12.4884 15.2394 11.2884C15.2994 10.2553 15.2881 9.22964 15.2881 8.19464ZM7.79189 12.0403C5.66376 12.0403 3.94626 10.3228 3.94626 8.19464C3.94626 6.06651 5.66376 4.34901 7.79189 4.34901C9.92001 4.34901 11.6375 6.06651 11.6375 8.19464C11.6375 10.3228 9.92001 12.0403 7.79189 12.0403ZM11.795 5.08964C11.2981 5.08964 10.8969 4.68839 10.8969 4.19151C10.8969 3.69464 11.2981 3.29339 11.795 3.29339C12.2919 3.29339 12.6931 3.69464 12.6931 4.19151C12.6933 4.3095 12.6702 4.42635 12.6251 4.53539C12.58 4.64442 12.5138 4.74349 12.4304 4.82692C12.347 4.91034 12.2479 4.97649 12.1389 5.02158C12.0299 5.06666 11.913 5.08979 11.795 5.08964Z" fill="#333333"/>
</svg>
