<svg width="39" height="39" viewBox="0 0 39 39" fill="none" xmlns="http://www.w3.org/2000/svg">
<rect width="38.4" height="38.4" rx="4.8" fill="white"/>
<g clip-path="url(#clip0_32_248)">
<path d="M28.5144 13.5495C27.8464 13.8455 27.1288 14.0455 26.3744 14.1359C27.1528 13.6701 27.7352 12.937 28.0128 12.0735C27.2815 12.5079 26.4811 12.8136 25.6464 12.9775C25.0851 12.3782 24.3417 11.9809 23.5315 11.8474C22.7213 11.714 21.8897 11.8517 21.1658 12.2393C20.4419 12.6268 19.8662 13.2426 19.5281 13.9908C19.19 14.7391 19.1084 15.5781 19.296 16.3775C17.8142 16.3031 16.3645 15.9179 15.0411 15.247C13.7178 14.5761 12.5503 13.6344 11.6144 12.4831C11.2944 13.0351 11.1104 13.6751 11.1104 14.3567C11.1101 14.9703 11.2612 15.5745 11.5503 16.1157C11.8395 16.6568 12.2577 17.1183 12.768 17.4591C12.1762 17.4402 11.5975 17.2803 11.08 16.9927V17.0407C11.0799 17.9013 11.3776 18.7354 11.9226 19.4015C12.4675 20.0676 13.2261 20.5246 14.0696 20.6951C13.5206 20.8436 12.9451 20.8655 12.3864 20.7591C12.6244 21.4996 13.088 22.1471 13.7123 22.611C14.3366 23.0749 15.0903 23.332 15.868 23.3463C14.5479 24.3826 12.9175 24.9447 11.2392 24.9423C10.9419 24.9423 10.6449 24.925 10.3496 24.8903C12.0532 25.9856 14.0363 26.5669 16.0616 26.5647C22.9176 26.5647 26.6656 20.8863 26.6656 15.9615C26.6656 15.8015 26.6616 15.6399 26.6544 15.4799C27.3834 14.9526 28.0127 14.2998 28.5128 13.5519L28.5144 13.5495Z" fill="#333333"/>
</g>
<defs>
<clipPath id="clip0_32_248">
<rect width="19.2" height="19.2" fill="white" transform="translate(9.59961 9.6001)"/>
</clipPath>
</defs>
</svg>
