<svg width="39" height="39" viewBox="0 0 39 39" fill="none" xmlns="http://www.w3.org/2000/svg">
<rect x="0.600586" width="38.4" height="38.4" rx="4.8" fill="white"/>
<path d="M19.9868 9.09424C14.5075 9.09424 10.0652 13.5018 10.0652 18.9393C10.0652 20.7993 10.5854 22.5388 11.4889 24.0229L9.69824 29.3048L15.1914 27.5597C16.6128 28.3395 18.2475 28.7843 19.9868 28.7843C25.4667 28.7843 29.9088 24.3761 29.9088 18.9393C29.9088 13.5018 25.4667 9.09424 19.9868 9.09424ZM24.9204 22.6781C24.687 23.2568 23.6313 23.7849 23.1655 23.8092C22.7002 23.8339 22.687 24.1698 20.1502 23.0678C17.6137 21.9655 16.0877 19.2854 15.9674 19.1128C15.847 18.9408 14.9848 17.7122 15.0313 16.4757C15.0782 15.2391 15.7553 14.6556 15.9969 14.4129C16.2383 14.1699 16.5151 14.1264 16.6841 14.1236C16.8839 14.1204 17.0132 14.1177 17.1611 14.1231C17.3088 14.1287 17.5306 14.0922 17.7227 14.6031C17.9147 15.1139 18.3743 16.3694 18.4331 16.4973C18.4918 16.6254 18.5282 16.7737 18.4377 16.9381C18.3469 17.1029 18.3004 17.2059 18.1688 17.3479C18.0363 17.4899 17.8902 17.6656 17.7721 17.7742C17.6404 17.8944 17.5028 18.0255 17.6413 18.2825C17.7797 18.5394 18.2572 19.3813 18.9847 20.0751C19.9197 20.9671 20.726 21.2629 20.9741 21.3977C21.2229 21.5332 21.3714 21.5182 21.5256 21.3558C21.6792 21.1934 22.186 20.6455 22.3646 20.4008C22.543 20.1555 22.7102 20.2035 22.9394 20.2957C23.1685 20.3883 24.3901 21.0426 24.6389 21.1777C24.8875 21.3126 25.0536 21.3821 25.1131 21.489C25.1725 21.5964 25.1537 22.0994 24.9204 22.6781Z" fill="#333333"/>
</svg>
