<svg width="39" height="39" viewBox="0 0 39 39" fill="none" xmlns="http://www.w3.org/2000/svg">
<rect width="38.4" height="38.4" rx="4.8" fill="white"/>
<path d="M27.2492 15.1519C27.1535 14.7957 26.966 14.4709 26.7054 14.2099C26.4448 13.949 26.1202 13.7611 25.7642 13.665C24.4536 13.3125 19.1998 13.3125 19.1998 13.3125C19.1998 13.3125 13.9461 13.3125 12.6354 13.6631C12.2792 13.7589 11.9545 13.9467 11.6938 14.2077C11.4332 14.4687 11.2458 14.7937 11.1504 15.15C10.7998 16.4625 10.7998 19.2 10.7998 19.2C10.7998 19.2 10.7998 21.9375 11.1504 23.2481C11.3436 23.9719 11.9136 24.5419 12.6354 24.735C13.9461 25.0875 19.1998 25.0875 19.1998 25.0875C19.1998 25.0875 24.4536 25.0875 25.7642 24.735C26.4879 24.5419 27.0561 23.9719 27.2492 23.2481C27.5998 21.9375 27.5998 19.2 27.5998 19.2C27.5998 19.2 27.5998 16.4625 27.2492 15.1519ZM17.5311 21.7125V16.6875L21.8811 19.1813L17.5311 21.7125Z" fill="#333333"/>
</svg>
